<svg style="fill:white" id="Capa_1" enable-background="new 0 0 512 512" height="512" viewBox="0 0 512 512" width="512" xmlns="http://www.w3.org/2000/svg"><g><path d="m467 80h-44.992v-49.996c0-16.571-13.433-30.004-30.004-30.004-16.571 0-30.004 13.433-30.004 30.004v28.067c0 15.461-9.929 28.905-24.707 33.452l-25.293 7.783v155.694c0 .397-.02.789-.03 1.183 8.847 8.847 20.846 13.817 33.357 13.817h121.673c24.853 0 45-20.147 45-45v-100c0-24.853-20.147-45-45-45z"/><path d="m267 270h-30c-8.284 0-15-6.716-15-15v-160c0-8.284 6.716-15 15-15h30c8.284 0 15 6.716 15 15v160c0 8.284-6.716 15-15 15z"/><path d="m345.327 300c-16.453 0-32.112-5.128-45.178-14.605-8.232 8.97-20.043 14.605-33.149 14.605h-30c-24.853 0-45-20.147-45-45v-78h-177c-8.284 0-15 6.716-15 15v304.533c0 5.277 2.536 10.346 7.002 13.157 2.455 1.546 5.23 2.31 7.997 2.31 2.91 0 5.812-.846 8.321-2.519l56.222-37.481h315.458c8.284 0 15-6.716 15-15v-157zm-270.327-48h85c8.284 0 15 6.716 15 15s-6.716 15-15 15h-85c-8.284 0-15-6.716-15-15s6.716-15 15-15zm260 165h-260c-8.284 0-15-6.716-15-15s6.716-15 15-15h260c8.284 0 15 6.716 15 15s-6.716 15-15 15zm0-67.5h-260c-8.284 0-15-6.716-15-15s6.716-15 15-15h260c8.284 0 15 6.716 15 15s-6.716 15-15 15z"/></g></svg>